<?xml version="1.0" encoding="iso-8859-1"?>
<!-- Generator: Adobe Illustrator 19.0.0, SVG Export Plug-In . SVG Version: 6.00 Build 0)  -->
<svg version="1.1" id="Layer_1" xmlns="http://www.w3.org/2000/svg" xmlns:xlink="http://www.w3.org/1999/xlink" x="0px" y="0px"
	 viewBox="0 0 512 512" style="enable-background:new 0 0 512 512;" xml:space="preserve">
<circle style="fill:#FDDF6D;" cx="256.002" cy="256.001" r="245.994"/>
<path style="fill:#FCC56B;" d="M308.715,465.677c-135.858,0-245.993-110.134-245.993-245.993
	c0-72.584,31.443-137.816,81.444-182.842C64.528,77.562,10.008,160.414,10.008,256c0,135.858,110.134,245.993,245.993,245.993
	c63.274,0,120.962-23.898,164.549-63.149C386.997,455.999,348.988,465.677,308.715,465.677z"/>
<g>
	<circle style="fill:#FFFFFF;" cx="213.157" cy="179.852" r="30.022"/>
	<circle style="fill:#FFFFFF;" cx="382.188" cy="179.852" r="30.022"/>
</g>
<path d="M359.294,21.696c-5.056-2.231-10.964,0.057-13.198,5.114c-2.232,5.056,0.057,10.964,5.113,13.196
	C436.727,77.76,491.985,162.543,491.985,256c0,130.124-105.862,235.985-235.984,235.985S20.015,386.122,20.015,256
	S125.878,20.015,256.001,20.015c5.528,0,10.007-4.481,10.007-10.007S261.529,0,256.001,0c-141.158,0-256,114.84-256,256
	s114.84,256,256,256c141.158,0,255.999-114.84,255.999-256C512.001,154.619,452.059,62.65,359.294,21.696z"/>
<path d="M173.134,179.855c0,22.072,17.957,40.029,40.029,40.029s40.029-17.957,40.029-40.029s-17.957-40.029-40.029-40.029
	S173.134,157.783,173.134,179.855z M233.179,179.855c0,11.036-8.979,20.015-20.015,20.015s-20.015-8.979-20.015-20.015
	s8.979-20.015,20.015-20.015C224.2,159.84,233.179,168.819,233.179,179.855z"/>
<path d="M422.216,179.855c0-22.072-17.957-40.029-40.029-40.029s-40.029,17.957-40.029,40.029s17.957,40.029,40.029,40.029
	S422.216,201.927,422.216,179.855z M362.172,179.855c0-11.036,8.979-20.015,20.015-20.015s20.015,8.979,20.015,20.015
	s-8.979,20.015-20.015,20.015S362.172,190.891,362.172,179.855z"/>
<circle cx="322.437" cy="20.015" r="10.007"/>
<g>
</g>
<g>
</g>
<g>
</g>
<g>
</g>
<g>
</g>
<g>
</g>
<g>
</g>
<g>
</g>
<g>
</g>
<g>
</g>
<g>
</g>
<g>
</g>
<g>
</g>
<g>
</g>
<g>
</g>
</svg>
